<?xml version="1.0" standalone="no"?>
<!DOCTYPE svg PUBLIC "-//W3C//DTD SVG 20010904//EN"
 "http://www.w3.org/TR/2001/REC-SVG-20010904/DTD/svg10.dtd">
<svg version="1.0" xmlns="http://www.w3.org/2000/svg"
 width="159.000000pt" height="159.000000pt" viewBox="0 0 159.000000 159.000000"
 preserveAspectRatio="xMidYMid meet">

<g transform="translate(0.000000,159.000000) scale(0.100000,-0.100000)"
fill="#000000" stroke="none">
<path d="M688 1406 c-213 -113 -416 -237 -443 -271 l-30 -37 0 -302 0 -303 27
-36 c20 -26 92 -72 260 -169 310 -177 275 -177 568 -9 261 150 266 153 290
201 19 36 20 60 20 315 0 251 -2 279 -19 313 -10 20 -27 44 -37 53 -24 20
-421 244 -468 264 -55 23 -98 18 -168 -19z m48 -271 c10 -41 -10 -55 -82 -55
-35 0 -74 -5 -88 -11 -36 -17 -56 -67 -56 -138 0 -56 -2 -62 -25 -73 -76 -35
-92 138 -22 234 35 47 91 68 184 68 80 0 83 -1 89 -25z m335 2 c61 -32 99
-105 99 -192 0 -49 -4 -66 -20 -80 -16 -15 -25 -16 -44 -7 -21 9 -24 18 -28
87 -3 72 -6 79 -36 106 -29 26 -39 29 -100 29 -69 0 -92 10 -92 40 0 31 23 40
100 40 61 0 86 -5 121 -23z m-239 -134 c16 -14 18 -35 18 -208 0 -180 -1 -193
-20 -210 -16 -15 -26 -17 -48 -9 l-27 9 -3 205 c-2 184 -1 206 15 217 23 17
43 16 65 -4z m-148 -59 c13 -12 16 -41 16 -146 0 -142 -9 -168 -55 -168 -40 0
-45 17 -45 167 0 125 2 143 18 152 25 15 48 13 66 -5z m300 -6 c12 -17 16 -50
16 -143 0 -131 -11 -165 -54 -165 -42 0 -46 16 -46 167 0 125 2 143 18 152 27
16 50 13 66 -11z m-493 -208 c16 -9 19 -22 19 -71 0 -71 21 -121 56 -138 14
-6 50 -11 80 -11 63 0 94 -13 94 -38 0 -33 -22 -42 -99 -42 -149 0 -221 72
-221 221 0 77 24 104 71 79z m667 -42 c15 -15 15 -85 0 -129 -29 -85 -95 -129
-194 -129 -58 0 -84 11 -84 36 0 27 32 44 81 44 39 0 55 5 80 28 26 24 32 37
36 83 2 30 6 60 8 67 5 15 57 16 73 0z"/>
</g>
</svg>
